<svg width="374" height="45" viewBox="0 0 374 45" fill="none" xmlns="http://www.w3.org/2000/svg">
<path d="M96.8223 33V23.2075H80.6895V33H74.3491V9.51855H80.6895V18.0635H96.8223V9.51855H103.163V33H96.8223ZM136.693 31.8379C134.767 32.4759 132.842 32.9316 130.917 33.2051C129.002 33.4899 127.043 33.6323 125.038 33.6323C122.474 33.6323 120.19 33.3589 118.185 32.812C116.191 32.2537 114.51 31.4505 113.143 30.4023C111.776 29.3542 110.733 28.0724 110.016 26.5571C109.298 25.0418 108.939 23.3271 108.939 21.4131C108.939 19.6357 109.298 17.9894 110.016 16.4741C110.745 14.9474 111.77 13.6258 113.092 12.5093C114.425 11.3813 116.031 10.5041 117.911 9.87744C119.791 9.23942 121.887 8.92041 124.2 8.92041C126.331 8.92041 128.279 9.21094 130.045 9.79199C131.822 10.3617 133.343 11.2104 134.608 12.3384C135.884 13.4663 136.869 14.8563 137.564 16.5083C138.271 18.1603 138.624 20.063 138.624 22.2163V23.7886H115.484C115.689 24.5291 116.026 25.207 116.493 25.8223C116.971 26.4375 117.615 26.9616 118.424 27.3945C119.233 27.8275 120.224 28.1636 121.397 28.4028C122.582 28.6421 123.995 28.7617 125.636 28.7617C126.798 28.7617 127.937 28.6934 129.054 28.5566C130.17 28.4085 131.213 28.2205 132.181 27.9927C133.15 27.7534 134.021 27.4914 134.796 27.2065C135.582 26.9217 136.214 26.6369 136.693 26.3521V31.8379ZM132.318 19.1401C132.261 18.5591 132.084 17.9609 131.788 17.3457C131.503 16.7191 131.048 16.1551 130.421 15.6538C129.794 15.1525 128.974 14.7424 127.96 14.4233C126.946 14.0929 125.681 13.9277 124.166 13.9277C122.742 13.9277 121.511 14.1043 120.475 14.4575C119.438 14.8107 118.566 15.2493 117.86 15.7734C117.165 16.2975 116.624 16.8615 116.236 17.4653C115.849 18.0692 115.598 18.6274 115.484 19.1401H132.318ZM150.724 22.9512C150.724 23.931 150.815 24.7342 150.997 25.3608C151.179 25.9761 151.476 26.466 151.886 26.8306C152.296 27.1951 152.826 27.4458 153.475 27.5825C154.136 27.7192 154.945 27.7876 155.902 27.7876H167.933V33H154.603C152.757 33 151.185 32.8519 149.886 32.5557C148.599 32.248 147.545 31.7809 146.725 31.1543C145.904 30.5163 145.306 29.7131 144.93 28.7446C144.566 27.7762 144.383 26.6255 144.383 25.2925V9.51855H150.724V22.9512ZM173.026 33V9.51855H179.366V33H173.026ZM212.606 31.3936C211.786 31.7354 210.96 32.043 210.128 32.3164C209.296 32.5898 208.436 32.8234 207.547 33.0171C206.659 33.2222 205.719 33.376 204.728 33.4785C203.748 33.5811 202.694 33.6323 201.566 33.6323C199.173 33.6323 196.969 33.376 194.952 32.8633C192.947 32.3506 191.215 31.5815 189.757 30.5562C188.31 29.5194 187.182 28.2319 186.373 26.6938C185.564 25.1444 185.16 23.3385 185.16 21.2764C185.16 19.2142 185.564 17.4141 186.373 15.876C187.182 14.3265 188.31 13.0391 189.757 12.0137C191.215 10.9769 192.947 10.2021 194.952 9.68945C196.969 9.17676 199.173 8.92041 201.566 8.92041C202.694 8.92041 203.748 8.97168 204.728 9.07422C205.719 9.17676 206.659 9.33057 207.547 9.53564C208.436 9.72933 209.296 9.96289 210.128 10.2363C210.96 10.5098 211.786 10.8174 212.606 11.1592V16.8672C211.957 16.514 211.273 16.1665 210.555 15.8247C209.837 15.4715 209.046 15.1582 208.18 14.8848C207.314 14.5999 206.362 14.3721 205.326 14.2012C204.289 14.0189 203.121 13.9277 201.822 13.9277C199.828 13.9277 198.171 14.1328 196.849 14.543C195.539 14.9531 194.491 15.5 193.705 16.1836C192.918 16.8672 192.366 17.6533 192.047 18.542C191.728 19.4193 191.568 20.3307 191.568 21.2764C191.568 21.903 191.637 22.5239 191.773 23.1392C191.91 23.743 192.138 24.3184 192.457 24.8652C192.776 25.4007 193.192 25.8963 193.705 26.3521C194.217 26.8078 194.855 27.2008 195.619 27.5312C196.382 27.8617 197.271 28.1237 198.285 28.3174C199.31 28.4997 200.489 28.5908 201.822 28.5908C203.121 28.5908 204.289 28.5111 205.326 28.3516C206.362 28.1807 207.314 27.9585 208.18 27.6851C209.046 27.4116 209.837 27.104 210.555 26.7622C211.273 26.409 211.957 26.0501 212.606 25.6855V31.3936ZM238.429 33V30.6929C237.62 31.1372 236.748 31.5303 235.814 31.8721C234.891 32.2139 233.928 32.5044 232.926 32.7437C231.923 32.9829 230.886 33.1595 229.815 33.2734C228.756 33.3988 227.685 33.4614 226.603 33.4614C225.338 33.4614 224.113 33.3418 222.928 33.1025C221.755 32.8633 220.712 32.4759 219.801 31.9404C218.889 31.4049 218.154 30.7043 217.596 29.8384C217.049 28.9725 216.776 27.9129 216.776 26.6597C216.776 25.076 217.209 23.7601 218.075 22.7119C218.941 21.6523 220.262 20.7865 222.04 20.1143C223.817 19.4421 226.061 18.9237 228.773 18.5591C231.496 18.1945 234.715 17.9097 238.429 17.7046V17.209C238.429 16.8216 238.326 16.4399 238.121 16.064C237.916 15.6766 237.54 15.3405 236.993 15.0557C236.458 14.7594 235.717 14.5202 234.771 14.3379C233.837 14.1556 232.641 14.0645 231.183 14.0645C230.032 14.0645 228.893 14.1271 227.765 14.2524C226.648 14.3664 225.566 14.5259 224.518 14.731C223.481 14.936 222.495 15.1753 221.561 15.4487C220.627 15.7222 219.778 16.007 219.015 16.3032V10.6636C219.812 10.4585 220.707 10.2591 221.698 10.0654C222.689 9.87174 223.72 9.70654 224.791 9.56982C225.862 9.42171 226.944 9.30778 228.038 9.22803C229.132 9.13688 230.18 9.09131 231.183 9.09131C233.154 9.09131 234.971 9.25651 236.634 9.58691C238.298 9.90592 239.728 10.4072 240.924 11.0908C242.132 11.7744 243.071 12.6403 243.744 13.6885C244.427 14.7367 244.769 15.9842 244.769 17.4312V33H238.429ZM238.429 22.2847C235.991 22.3758 233.917 22.5068 232.208 22.6777C230.51 22.8486 229.098 23.048 227.97 23.2759C226.842 23.5037 225.953 23.7487 225.304 24.0107C224.666 24.2728 224.187 24.5405 223.868 24.814C223.549 25.0874 223.35 25.3608 223.27 25.6343C223.202 25.9077 223.167 26.1584 223.167 26.3862C223.167 26.6597 223.242 26.9274 223.39 27.1895C223.538 27.4401 223.794 27.6623 224.159 27.856C224.535 28.0496 225.03 28.2035 225.646 28.3174C226.261 28.4313 227.035 28.4883 227.97 28.4883C229.007 28.4883 230.021 28.4085 231.012 28.249C232.003 28.0895 232.943 27.873 233.832 27.5996C234.72 27.3148 235.552 26.9844 236.327 26.6084C237.113 26.221 237.813 25.8109 238.429 25.3779V22.2847ZM273.617 14.8335C273.446 14.7765 273.195 14.7025 272.865 14.6113C272.546 14.5088 272.17 14.4119 271.737 14.3208C271.304 14.2183 270.825 14.1328 270.301 14.0645C269.789 13.9961 269.259 13.9619 268.712 13.9619C267.573 13.9619 266.507 14.1043 265.516 14.3892C264.536 14.6626 263.619 15.0329 262.765 15.5C261.91 15.9557 261.113 16.4798 260.372 17.0723C259.643 17.6533 258.971 18.2515 258.355 18.8667V33H252.015V9.51855H258.355V13.3296C259.119 12.7599 259.899 12.2131 260.697 11.689C261.506 11.1535 262.343 10.6807 263.209 10.2705C264.086 9.86035 265.009 9.53564 265.978 9.29639C266.946 9.04574 267.971 8.92041 269.054 8.92041C269.464 8.92041 269.88 8.9432 270.301 8.98877C270.734 9.02295 271.15 9.06852 271.549 9.12549C271.959 9.18245 272.341 9.24512 272.694 9.31348C273.047 9.38184 273.355 9.4502 273.617 9.51855V14.8335ZM299.251 14.8335C299.081 14.7765 298.83 14.7025 298.5 14.6113C298.181 14.5088 297.805 14.4119 297.372 14.3208C296.939 14.2183 296.46 14.1328 295.936 14.0645C295.423 13.9961 294.894 13.9619 294.347 13.9619C293.207 13.9619 292.142 14.1043 291.151 14.3892C290.171 14.6626 289.254 15.0329 288.399 15.5C287.545 15.9557 286.747 16.4798 286.007 17.0723C285.278 17.6533 284.605 18.2515 283.99 18.8667V33H277.65V9.51855H283.99V13.3296C284.754 12.7599 285.534 12.2131 286.332 11.689C287.14 11.1535 287.978 10.6807 288.844 10.2705C289.721 9.86035 290.644 9.53564 291.612 9.29639C292.581 9.04574 293.606 8.92041 294.688 8.92041C295.099 8.92041 295.514 8.9432 295.936 8.98877C296.369 9.02295 296.785 9.06852 297.184 9.12549C297.594 9.18245 297.975 9.24512 298.329 9.31348C298.682 9.38184 298.989 9.4502 299.251 9.51855V14.8335ZM303.285 33V9.51855H309.625V33H303.285ZM343.172 31.8379C341.247 32.4759 339.321 32.9316 337.396 33.2051C335.482 33.4899 333.522 33.6323 331.517 33.6323C328.954 33.6323 326.669 33.3589 324.664 32.812C322.67 32.2537 320.99 31.4505 319.623 30.4023C318.255 29.3542 317.213 28.0724 316.495 26.5571C315.777 25.0418 315.418 23.3271 315.418 21.4131C315.418 19.6357 315.777 17.9894 316.495 16.4741C317.224 14.9474 318.25 13.6258 319.571 12.5093C320.904 11.3813 322.511 10.5041 324.391 9.87744C326.271 9.23942 328.367 8.92041 330.68 8.92041C332.81 8.92041 334.758 9.21094 336.524 9.79199C338.302 10.3617 339.823 11.2104 341.087 12.3384C342.363 13.4663 343.349 14.8563 344.044 16.5083C344.75 18.1603 345.104 20.063 345.104 22.2163V23.7886H321.964C322.169 24.5291 322.505 25.207 322.972 25.8223C323.451 26.4375 324.094 26.9616 324.903 27.3945C325.712 27.8275 326.703 28.1636 327.877 28.4028C329.062 28.6421 330.475 28.7617 332.115 28.7617C333.277 28.7617 334.417 28.6934 335.533 28.5566C336.65 28.4085 337.692 28.2205 338.661 27.9927C339.629 27.7534 340.501 27.4914 341.275 27.2065C342.062 26.9217 342.694 26.6369 343.172 26.3521V31.8379ZM338.797 19.1401C338.74 18.5591 338.564 17.9609 338.268 17.3457C337.983 16.7191 337.527 16.1551 336.9 15.6538C336.274 15.1525 335.453 14.7424 334.439 14.4233C333.425 14.0929 332.161 13.9277 330.646 13.9277C329.221 13.9277 327.991 14.1043 326.954 14.4575C325.917 14.8107 325.046 15.2493 324.339 15.7734C323.644 16.2975 323.103 16.8615 322.716 17.4653C322.328 18.0692 322.078 18.6274 321.964 19.1401H338.797ZM372.464 14.8335C372.293 14.7765 372.043 14.7025 371.712 14.6113C371.393 14.5088 371.017 14.4119 370.584 14.3208C370.152 14.2183 369.673 14.1328 369.149 14.0645C368.636 13.9961 368.106 13.9619 367.56 13.9619C366.42 13.9619 365.355 14.1043 364.364 14.3892C363.384 14.6626 362.467 15.0329 361.612 15.5C360.758 15.9557 359.96 16.4798 359.22 17.0723C358.491 17.6533 357.818 18.2515 357.203 18.8667V33H350.863V9.51855H357.203V13.3296C357.966 12.7599 358.747 12.2131 359.544 11.689C360.353 11.1535 361.191 10.6807 362.057 10.2705C362.934 9.86035 363.857 9.53564 364.825 9.29639C365.794 9.04574 366.819 8.92041 367.901 8.92041C368.312 8.92041 368.727 8.9432 369.149 8.98877C369.582 9.02295 369.998 9.06852 370.396 9.12549C370.807 9.18245 371.188 9.24512 371.542 9.31348C371.895 9.38184 372.202 9.4502 372.464 9.51855V14.8335Z" fill="white"/>
<path d="M25.3378 0C22.8342 0 20.3323 2.57464 20.3323 8.57186C20.3323 17.1018 23.0436 24.086 25.3378 28.6525C27.6322 24.086 30.3429 17.1024 30.3429 8.57186C30.3429 2.57464 27.8405 0 25.3378 0Z" fill="white"/>
<path d="M0.489266 43.0222C1.74082 45.1909 5.22213 46.0702 10.4156 43.0716C17.8034 38.8064 22.4956 32.9661 25.3033 28.6961C20.2017 28.9923 12.7977 30.1367 5.40998 34.4026C0.216503 37.4007 -0.761706 40.8558 0.489266 43.0222Z" fill="white"/>
<path d="M50.1855 43.0222C48.9346 45.1909 45.4526 46.0702 40.2597 43.0716C32.8719 38.8064 28.1798 32.9661 25.3713 28.6961C30.4735 28.9923 37.8771 30.1367 45.2654 34.4026C50.4577 37.4007 51.4365 40.8558 50.1855 43.0222Z" fill="white"/>
</svg>
