<svg width="223" height="261" viewBox="0 0 223 261" fill="none" xmlns="http://www.w3.org/2000/svg">
<g filter="url(#filter0_d_127_9)">
<path d="M111.177 117.81L104.529 114.645L111.177 103.038L117.825 114.645L111.177 117.81Z" fill="#CCF0FF"/>
<path d="M111.177 103.038V117.81L117.825 114.645L111.177 103.038Z" fill="#80C9FF" fill-opacity="0.5"/>
<path d="M111.177 127.142L104.297 115.059L111.177 118.348L118.056 115.059L111.177 127.142Z" fill="#CCF0FF"/>
<path d="M111.201 111.691L104.553 114.668L111.201 117.834L117.849 114.668L111.201 111.691Z" fill="#80C9FF" fill-opacity="0.5"/>
<path d="M118.056 115.059L111.177 118.348V127.142L118.056 115.059Z" fill="#80C9FF" fill-opacity="0.5"/>
</g>
<g filter="url(#filter1_d_127_9)">
<rect x="106.935" y="153.416" width="11.0279" height="6.02598" fill="#D8E7F4"/>
</g>
<g filter="url(#filter2_d_127_9)">
<rect x="106.935" y="164.503" width="11.0279" height="6.02598" fill="#D8E7F4"/>
</g>
<g filter="url(#filter3_d_127_9)">
<rect x="104.777" y="175.832" width="15.583" height="5.78494" fill="#D8E7F4"/>
</g>
<g filter="url(#filter4_d_127_9)">
<rect x="104.777" y="186.679" width="15.583" height="5.78494" fill="#D8E7F4"/>
</g>
<path d="M115.206 139.315L123.357 129.794C123.357 129.794 120.415 138.829 120.839 156.429C121.264 174.028 121.996 182.403 124.196 194.754L137.501 260.437H128.751L115.805 191.379C115.805 191.379 114.416 176.56 114.247 167.034C114.053 156.204 115.206 139.315 115.206 139.315Z" fill="#D8E7F4"/>
<path d="M107.153 139.187L99.0081 129.673C99.0081 129.673 101.947 138.702 101.523 156.287C101.1 173.873 100.368 182.242 98.1696 194.583L84.8786 260.437H94.7079L106.554 191.211C106.554 191.211 107.942 176.403 108.111 166.885C108.304 156.063 107.153 139.187 107.153 139.187Z" fill="#D8E7F4"/>
<line y1="-0.25" x2="18.8696" y2="-0.25" transform="matrix(-0.698775 0.715342 -0.711549 -0.702636 90.6323 145.943)" stroke="white" stroke-width="0.5"/>
<line y1="-0.25" x2="15.4934" y2="-0.25" transform="matrix(0.591771 0.806106 -0.803034 0.595933 133.306 147.39)" stroke="white" stroke-width="0.5"/>
<line y1="-0.25" x2="15.6382" y2="-0.25" transform="matrix(0.705191 0.709018 -0.705191 0.709018 149.128 147.631)" stroke="white" stroke-width="0.5"/>
<line y1="-0.25" x2="13.4996" y2="-0.25" transform="matrix(0.914318 0.404998 -0.401343 0.915928 135.463 126.178)" stroke="white" stroke-width="0.5"/>
<line y1="-0.25" x2="34.0181" y2="-0.25" transform="matrix(0.986631 0.162969 -0.16126 0.986912 141.936 120.634)" stroke="white" stroke-width="0.5"/>
<line y1="-0.25" x2="25.8399" y2="-0.25" transform="matrix(0.927781 -0.373126 0.36966 0.929167 151.526 101.11)" stroke="white" stroke-width="0.5"/>
<line y1="-0.25" x2="23.7336" y2="-0.25" transform="matrix(0.808097 -0.58905 0.584885 0.811116 157.999 89.5403)" stroke="white" stroke-width="0.5"/>
<line y1="-0.25" x2="25.8901" y2="-0.25" transform="matrix(0.75175 -0.659449 0.655408 0.755275 136.422 93.3563)" stroke="white" stroke-width="0.5"/>
<line y1="-0.25" x2="26.975" y2="-0.25" transform="matrix(0.391046 -0.920371 0.918835 0.394642 120.36 93.3969)" stroke="white" stroke-width="0.5"/>
<line y1="-0.25" x2="28.1908" y2="-0.25" transform="matrix(0.127562 -0.991831 0.991654 0.128927 117.723 84.9606)" stroke="white" stroke-width="0.5"/>
<line y1="-0.25" x2="19.5985" y2="-0.25" transform="matrix(-0.440369 -0.897817 0.895918 -0.44422 100.701 88.3351)" stroke="white" stroke-width="0.5"/>
<line y1="-0.25" x2="18.7546" y2="-0.25" transform="matrix(-0.651926 -0.758282 0.75478 -0.655978 84.1594 79.6577)" stroke="white" stroke-width="0.5"/>
<line y1="-0.25" x2="33.4031" y2="-0.25" transform="matrix(-0.911493 -0.411316 0.407626 -0.913149 77.4468 100.628)" stroke="white" stroke-width="0.5"/>
<line y1="-0.25" x2="15.2972" y2="-0.25" transform="matrix(-0.971667 0.236356 -0.233952 -0.972248 68.8162 126.178)" stroke="white" stroke-width="0.5"/>
<line y1="-0.25" x2="27.7821" y2="-0.25" transform="matrix(-0.903037 0.429562 -0.425779 -0.904827 86.5568 127.142)" stroke="white" stroke-width="0.5"/>
<defs>
<filter id="filter0_d_127_9" x="0.297363" y="0.0384521" width="221.759" height="232.104" filterUnits="userSpaceOnUse" color-interpolation-filters="sRGB">
<feFlood flood-opacity="0" result="BackgroundImageFix"/>
<feColorMatrix in="SourceAlpha" type="matrix" values="0 0 0 0 0 0 0 0 0 0 0 0 0 0 0 0 0 0 127 0" result="hardAlpha"/>
<feOffset dy="1"/>
<feGaussianBlur stdDeviation="52"/>
<feComposite in2="hardAlpha" operator="out"/>
<feColorMatrix type="matrix" values="0 0 0 0 1 0 0 0 0 1 0 0 0 0 1 0 0 0 1 0"/>
<feBlend mode="normal" in2="BackgroundImageFix" result="effect1_dropShadow_127_9"/>
<feBlend mode="normal" in="SourceGraphic" in2="effect1_dropShadow_127_9" result="shape"/>
</filter>
<filter id="filter1_d_127_9" x="105.935" y="153.416" width="13.028" height="9.026" filterUnits="userSpaceOnUse" color-interpolation-filters="sRGB">
<feFlood flood-opacity="0" result="BackgroundImageFix"/>
<feColorMatrix in="SourceAlpha" type="matrix" values="0 0 0 0 0 0 0 0 0 0 0 0 0 0 0 0 0 0 127 0" result="hardAlpha"/>
<feOffset dy="2"/>
<feGaussianBlur stdDeviation="0.5"/>
<feComposite in2="hardAlpha" operator="out"/>
<feColorMatrix type="matrix" values="0 0 0 0 0.331062 0 0 0 0 0.67891 0 0 0 0 1 0 0 0 1 0"/>
<feBlend mode="normal" in2="BackgroundImageFix" result="effect1_dropShadow_127_9"/>
<feBlend mode="normal" in="SourceGraphic" in2="effect1_dropShadow_127_9" result="shape"/>
</filter>
<filter id="filter2_d_127_9" x="104.935" y="164.503" width="15.028" height="10.026" filterUnits="userSpaceOnUse" color-interpolation-filters="sRGB">
<feFlood flood-opacity="0" result="BackgroundImageFix"/>
<feColorMatrix in="SourceAlpha" type="matrix" values="0 0 0 0 0 0 0 0 0 0 0 0 0 0 0 0 0 0 127 0" result="hardAlpha"/>
<feOffset dy="2"/>
<feGaussianBlur stdDeviation="1"/>
<feComposite in2="hardAlpha" operator="out"/>
<feColorMatrix type="matrix" values="0 0 0 0 1 0 0 0 0 0.372729 0 0 0 0 0.937273 0 0 0 1 0"/>
<feBlend mode="normal" in2="BackgroundImageFix" result="effect1_dropShadow_127_9"/>
<feBlend mode="normal" in="SourceGraphic" in2="effect1_dropShadow_127_9" result="shape"/>
</filter>
<filter id="filter3_d_127_9" x="102.777" y="175.832" width="19.583" height="9.78491" filterUnits="userSpaceOnUse" color-interpolation-filters="sRGB">
<feFlood flood-opacity="0" result="BackgroundImageFix"/>
<feColorMatrix in="SourceAlpha" type="matrix" values="0 0 0 0 0 0 0 0 0 0 0 0 0 0 0 0 0 0 127 0" result="hardAlpha"/>
<feOffset dy="2"/>
<feGaussianBlur stdDeviation="1"/>
<feComposite in2="hardAlpha" operator="out"/>
<feColorMatrix type="matrix" values="0 0 0 0 0.356062 0 0 0 0 1 0 0 0 0 0.497729 0 0 0 1 0"/>
<feBlend mode="normal" in2="BackgroundImageFix" result="effect1_dropShadow_127_9"/>
<feBlend mode="normal" in="SourceGraphic" in2="effect1_dropShadow_127_9" result="shape"/>
</filter>
<filter id="filter4_d_127_9" x="102.777" y="186.679" width="19.583" height="9.78491" filterUnits="userSpaceOnUse" color-interpolation-filters="sRGB">
<feFlood flood-opacity="0" result="BackgroundImageFix"/>
<feColorMatrix in="SourceAlpha" type="matrix" values="0 0 0 0 0 0 0 0 0 0 0 0 0 0 0 0 0 0 127 0" result="hardAlpha"/>
<feOffset dy="2"/>
<feGaussianBlur stdDeviation="1"/>
<feComposite in2="hardAlpha" operator="out"/>
<feColorMatrix type="matrix" values="0 0 0 0 0.987413 0 0 0 0 0.596877 0 0 0 0 0.236382 0 0 0 1 0"/>
<feBlend mode="normal" in2="BackgroundImageFix" result="effect1_dropShadow_127_9"/>
<feBlend mode="normal" in="SourceGraphic" in2="effect1_dropShadow_127_9" result="shape"/>
</filter>
</defs>
</svg>
